<?xml version="1.0" standalone="no"?>
<!DOCTYPE svg PUBLIC "-//W3C//DTD SVG 1.1//EN" "http://www.w3.org/Graphics/SVG/1.1/DTD/svg11.dtd"><svg t="1570984711014" class="icon" viewBox="0 0 1024 1024" version="1.1" xmlns="http://www.w3.org/2000/svg" p-id="1173" xmlns:xlink="http://www.w3.org/1999/xlink" width="200" height="200"><defs><style type="text/css"></style></defs><path d="M 669.867 580.267 l -102.4 -59.7333 l -12.8 -8.53333 l 12.8 -8.53333 l 102.4 -59.7333 c 12.8 -4.26667 12.8 -17.0667 8.53333 -25.6 c -4.26667 -8.53333 -17.0667 -12.8 -29.8667 -8.53333 L 546.133 469.333 l -12.8 8.53333 V 341.333 c 0 -12.8 -8.53333 -21.3333 -21.3333 -21.3333 s -21.3333 8.53333 -21.3333 21.3333 V 473.6 l -12.8 -4.26667 l -102.4 -59.7333 c -12.8 -8.53333 -25.6 -4.26667 -29.8667 8.53333 c -4.26667 8.53333 -4.26667 21.3333 8.53333 25.6 l 102.4 59.7333 l 12.8 8.53333 l -12.8 8.53333 l -102.4 59.7333 c -12.8 4.26667 -12.8 17.0667 -8.53333 29.8667 c 4.26667 8.53333 17.0667 12.8 29.8667 8.53333 l 102.4 -59.7333 l 12.8 -8.53333 V 682.667 c 0 12.8 8.53333 21.3333 21.3333 21.3333 s 21.3333 -8.53333 21.3333 -21.3333 V 550.4 l 12.8 8.53333 l 102.4 59.7333 c 8.53333 4.26667 21.3333 4.26667 29.8667 -8.53333 c 4.26667 -12.8 4.26667 -25.6 -8.53333 -29.8667 Z" p-id="1174" fill="#d81e06"></path></svg>
