<?xml version="1.0" standalone="no"?><!DOCTYPE svg PUBLIC "-//W3C//DTD SVG 1.1//EN" "http://www.w3.org/Graphics/SVG/1.1/DTD/svg11.dtd"><svg t="1569599174116" class="icon" viewBox="0 0 1024 1024" version="1.1" xmlns="http://www.w3.org/2000/svg" p-id="1106" data-spm-anchor-id="a313x.7781069.0.i0" xmlns:xlink="http://www.w3.org/1999/xlink" width="200" height="200"><defs><style type="text/css"></style></defs><path d="M798.72 286.72H225.28c-10.24 0-20.48-8.192-20.48-20.48 0-10.24 8.192-20.48 20.48-20.48h573.44c10.24 0 20.48 8.192 20.48 20.48s-10.24 20.48-20.48 20.48z m0 327.68H430.08c-10.24 0-20.48-8.192-20.48-20.48 0-10.24 8.192-20.48 20.48-20.48h368.64c10.24 0 20.48 8.192 20.48 20.48s-10.24 20.48-20.48 20.48z m0-163.84H430.08c-10.24 0-20.48-8.192-20.48-20.48 0-10.24 8.192-20.48 20.48-20.48h368.64c10.24 0 20.48 8.192 20.48 20.48s-10.24 20.48-20.48 20.48z m0 327.68H225.28c-10.24 0-20.48-10.24-20.48-20.48s8.192-20.48 20.48-20.48h573.44c10.24 0 20.48 10.24 20.48 20.48s-10.24 20.48-20.48 20.48zM212.992 530.432L331.776 614.4a20.48 20.48 0 0 0 32.768-16.384V428.032c0-16.384-18.432-26.624-32.768-16.384l-118.784 83.968c-10.24 10.24-10.24 26.624 0 34.816z" p-id="1107" fill="#f4ea2a"></path></svg>