<?xml version="1.0" standalone="no"?>
<!DOCTYPE svg PUBLIC "-//W3C//DTD SVG 1.1//EN"
  "http://www.w3.org/Graphics/SVG/1.1/DTD/svg11.dtd">
<svg t="1569856444744" class="icon" viewBox="0 0 1024 1024"
     version="1.1" xmlns="http://www.w3.org/2000/svg"
     p-id="1843" xmlns:xlink="http://www.w3.org/1999/xlink"
     width="200" height="200"><defs><style type="text/css">

</style></defs>
  <path d="M409.6 89.6c-25.6 0-51.2 25.6-51.2 51.2v729.6c0 25.6 25.6 51.2 51.2 51.2h204.8c25.6 0 51.2-25.6 51.2-51.2V140.8c0-25.6-25.6-51.2-51.2-51.2H409.6z m153.6 729.6H460.8V768h102.4v51.2z m0-102.4H460.8v-51.2h102.4v51.2z m0-108.8H460.8v-51.2h102.4v51.2z m0-102.4H460.8v-51.2h102.4v51.2z m-320-96h-128c-25.6 0-51.2 25.6-51.2 51.2v409.6c0 32 25.6 51.2 51.2 51.2h128c25.6 0 51.2-25.6 51.2-51.2V460.8c0-25.6-25.6-51.2-51.2-51.2z m665.6-102.4h-128c-25.6 0-51.2 25.6-51.2 51.2v512c0 32 25.6 51.2 51.2 51.2h128c25.6 0 51.2-25.6 51.2-51.2v-512c0-25.6-25.6-51.2-51.2-51.2z" fill="#1296db" p-id="1844"></path></svg>
